HIERARCHY
ROOT Hips
{
	OFFSET -3.958830 18.904000 13.208200
	CHANNELS 6 Xposition Yposition Zposition Zrotation Yrotation Xrotation 
	JOINT LHipJoint
	{
		OFFSET 0.000000 0.000000 0.000000
		CHANNELS 3 Zrotation Yrotation Xrotation
		JOINT LeftUpLeg
		{
			OFFSET 1.800000 -1.400000 0.085000
			CHANNELS 3 Zrotation Yrotation Xrotation
			JOINT LeftLeg
			{
				OFFSET 2.215000 -6.000000 0.000000
				CHANNELS 3 Zrotation Yrotation Xrotation
				JOINT LeftFoot
				{
					OFFSET 2.500000 -6.900000 0.000000
					CHANNELS 3 Zrotation Yrotation Xrotation
					JOINT LeftToeBase
					{
						OFFSET 0.200000 -0.500000 1.950000
						CHANNELS 3 Zrotation Yrotation Xrotation
						End Site
						{
							OFFSET 0.000000 0.000000 0.000000
						}
					}
				}
			}
		}
	}
	JOINT RHipJoint
	{
		OFFSET 0.000000 0.000000 0.000000
		CHANNELS 3 Zrotation Yrotation Xrotation
		JOINT RightUpLeg
		{
			OFFSET -1.800000 -1.400000 0.085000
			CHANNELS 3 Zrotation Yrotation Xrotation
			JOINT RightLeg
			{
				OFFSET -2.215000 -6.000000 0.000000
				CHANNELS 3 Zrotation Yrotation Xrotation
				JOINT RightFoot
				{
					OFFSET -2.500000 -6.900000 0.000000
					CHANNELS 3 Zrotation Yrotation Xrotation
					JOINT RightToeBase
					{
						OFFSET -0.200000 -0.500000 1.950000
						CHANNELS 3 Zrotation Yrotation Xrotation
						End Site
						{
							OFFSET 0.000000 0.000000 0.000000
						}
					}
				}
			}
		}
	}
	JOINT LowerBack
	{
		OFFSET 0.000000 0.000000 0.000000
		CHANNELS 3 Zrotation Yrotation Xrotation
		JOINT Spine
		{
			OFFSET -0.087000 1.940000 -0.288900
			CHANNELS 3 Zrotation Yrotation Xrotation
			JOINT Spine1
			{
				OFFSET 0.000000 1.950000 0.060000
				CHANNELS 3 Zrotation Yrotation Xrotation
				JOINT Neck
				{
					OFFSET 0.000000 0.000000 0.000000
					CHANNELS 3 Zrotation Yrotation Xrotation
					JOINT Neck1
					{
						OFFSET 0.000000 1.600000 0.340000
						CHANNELS 3 Zrotation Yrotation Xrotation
						JOINT Head
						{
							OFFSET 0.000000 1.667000 -0.240000
							CHANNELS 3 Zrotation Yrotation Xrotation
							End Site
							{
								OFFSET 0.000000 0.000000 0.000000
							}
						}
					}
				}
				JOINT LeftShoulder
				{
					OFFSET 0.000000 0.000000 0.000000
					CHANNELS 3 Zrotation Yrotation Xrotation
					JOINT LeftArm
					{
						OFFSET 2.700000 1.550000 -0.730000
						CHANNELS 3 Zrotation Yrotation Xrotation
						JOINT LeftForeArm
						{
							OFFSET 5.450000 0.000000 0.000000
							CHANNELS 3 Zrotation Yrotation Xrotation
							JOINT LeftHand
							{
								OFFSET 3.450000 0.000000 0.000000
								CHANNELS 3 Zrotation Yrotation Xrotation
								JOINT LeftHandIndex1
								{
									OFFSET 0.750000 0.000000 0.000000
									CHANNELS 3 Zrotation Yrotation Xrotation
									End Site
									{
										OFFSET 0.000000 0.000000 0.000000
									}
								}
							}
						}
					}
				}
				JOINT RightShoulder
				{
					OFFSET 0.000000 0.000000 0.000000
					CHANNELS 3 Zrotation Yrotation Xrotation
					JOINT RightArm
					{
						OFFSET -2.700000 1.550000 -0.730000
						CHANNELS 3 Zrotation Yrotation Xrotation
						JOINT RightForeArm
						{
							OFFSET -5.450000 0.000000 0.000000
							CHANNELS 3 Zrotation Yrotation Xrotation
							JOINT RightHand
							{
								OFFSET -3.450000 0.000000 0.000000
								CHANNELS 3 Zrotation Yrotation Xrotation
								JOINT RightHandIndex1
								{
									OFFSET -0.750000 0.000000 0.000000
									CHANNELS 3 Zrotation Yrotation Xrotation
									End Site
									{
										OFFSET 0.000000 0.000000 0.000000
									}
								}
							}
						}
					}
				}
			}
		}
	}
}
MOTION
Frames: 14
Frame Time: 0.016667
-0.152970 17.612060 -1.428970 -2.058891 -23.907862 4.353901 -15.205512 13.436149 2.649355 7.675824 -1.561350 -12.766343 -8.080557 6.017584 11.447183 -0.460740 5.017888 3.426302 -0.075560 -0.446010 -0.215060 18.277413 -10.481955 2.637849 -5.773529 2.334197 -21.832579 6.070927 -4.162849 10.883461 0.342554 -3.376496 3.467719 0.016210 1.394230 0.572340 -3.405665 -2.391478 -6.453245 6.692062 -2.623632 1.880013 -0.785292 -3.403507 9.445329 0.228922 -0.886932 -4.945860 -2.801017 6.272613 27.907072 -6.156680 8.312010 12.493260 -13.927772 -1.873226 0.399589 -22.048111 -15.071513 1.273713 40.030883 -76.929560 -28.462403 -4.423559 2.842117 -0.140740 1.120070 -0.680260 0.482750 14.087607 0.971863 1.655649 32.454782 5.142778 -8.271622 -79.032829 82.234993 -59.118434 0.212262 2.045115 -0.466270 0.272390 0.157520 0.091550 
-0.151940 17.611470 -1.427940 -2.023491 -23.963030 4.390276 -15.204853 13.434304 2.651573 7.606379 -1.568238 -12.804906 -8.067552 6.008523 11.459463 -0.459884 5.004784 3.423731 -0.074050 -0.444220 -0.213570 18.277562 -10.482521 2.640103 -5.811403 2.336542 -21.893197 6.078503 -4.164747 10.892864 0.341322 -3.371064 3.463896 0.014260 1.385090 0.574070 -3.406821 -2.387393 -6.457333 6.702632 -2.620801 1.869802 -0.788212 -3.398951 9.471482 0.223542 -0.931914 -5.024736 -2.876155 6.326058 27.974874 -6.126520 8.316640 12.448090 -13.585670 -2.042441 0.539107 -21.745622 -14.994210 1.360899 38.165834 -76.910908 -27.169761 -4.433160 2.901100 -0.139750 1.114010 -0.676450 0.477560 13.742184 1.232046 1.611196 32.029559 4.903838 -8.882294 -76.103262 83.423880 -57.811858 0.270308 1.810387 -0.459990 0.264930 0.159410 0.090520 
-0.150680 17.609670 -1.425290 -1.953269 -24.065852 4.503238 -15.203330 13.424474 2.655843 7.491980 -1.581454 -12.882883 -8.068634 5.989579 11.421931 -0.457231 4.984045 3.425223 -0.078650 -0.446620 -0.219480 18.278704 -10.482081 2.647293 -5.887399 2.347166 -22.041999 6.110590 -4.160307 10.848863 0.344072 -3.362455 3.461985 0.009890 1.380810 0.574320 -3.411685 -2.369788 -6.467305 6.710240 -2.601199 1.803552 -0.741480 -3.377971 9.546626 0.182076 -1.011221 -5.199847 -2.994460 6.422258 27.983783 -6.055060 8.308490 12.489500 -12.938855 -2.365089 0.790179 -21.158815 -14.845863 1.559397 34.261086 -76.926245 -24.467015 -4.456981 3.007258 -0.143510 1.110570 -0.676850 0.471730 13.150382 1.707042 1.621299 31.093884 4.419745 -9.706251 -69.686303 85.291622 -54.676847 0.444323 1.154133 -0.454100 0.258340 0.164970 0.092200 
-0.149090 17.608700 -1.422950 -1.908765 -24.202799 4.644481 -15.199897 13.414281 2.664104 7.392433 -1.602338 -12.995421 -8.074223 5.972650 11.413679 -0.460101 4.960630 3.422229 -0.081340 -0.448380 -0.220990 18.279751 -10.484334 2.660660 -5.934639 2.368093 -22.218052 6.152394 -4.160831 10.813595 0.342970 -3.347031 3.459820 0.004830 1.367690 0.575210 -3.416688 -2.346545 -6.493270 6.695813 -2.570923 1.745618 -0.598601 -3.343731 9.796672 0.144020 -1.037229 -5.528712 -3.031264 6.510578 28.105053 -6.060220 8.377940 12.400850 -12.179234 -2.925063 1.078433 -20.250444 -14.646566 1.774384 28.525662 -76.892078 -20.418001 -4.478027 3.130860 -0.137810 1.101480 -0.670270 0.462850 12.435300 2.339923 1.903535 29.702291 3.996084 -9.778786 -59.207113 86.529094 -48.445720 0.750693 0.024226 -0.448240 0.250220 0.171190 0.089110 
-0.147220 17.607080 -1.419690 -1.907139 -24.343016 4.856274 -15.195908 13.404123 2.674733 7.314742 -1.636367 -13.158448 -8.072410 5.942447 11.365130 -0.458762 4.930684 3.421501 -0.075820 -0.444950 -0.213060 18.281993 -10.480118 2.676437 -5.911224 2.405680 -22.411079 6.152766 -4.136354 10.730178 0.341311 -3.320407 3.462123 0.000880 1.350470 0.579630 -3.424993 -2.334871 -6.519703 6.739336 -2.570899 1.630928 -0.446068 -3.338082 10.169180 0.102165 -1.074138 -5.944711 -3.099512 6.585800 28.216726 -6.046590 8.405980 12.296200 -11.311669 -3.473160 1.327982 -19.254303 -14.553124 2.096774 20.824549 -76.678796 -14.841544 -4.496459 3.266449 -0.133370 1.090610 -0.660470 0.455690 11.613013 2.901831 2.358011 27.951172 4.033003 -8.546935 -45.285617 86.526748 -38.469723 1.056066 -1.063497 -0.436920 0.238200 0.170770 0.086020 
-0.146040 17.605840 -1.414440 -1.923861 -24.505664 5.117223 -15.194554 13.393595 2.687630 7.260990 -1.672928 -13.325611 -8.119854 5.915175 11.263622 -0.456469 4.908465 3.420147 -0.068040 -0.444460 -0.199590 18.283030 -10.466394 2.690518 -5.884612 2.451163 -22.608386 6.174171 -4.114913 10.620823 0.336547 -3.292059 3.463435 -0.006220 1.333480 0.589350 -3.429522 -2.339016 -6.540128 6.807100 -2.585122 1.453520 -0.314846 -3.344869 10.571002 0.088094 -1.122090 -6.399307 -3.205711 6.650859 28.369471 -6.086810 8.447760 12.176160 -10.378262 -3.981478 1.563322 -18.274743 -14.509505 2.501016 11.609781 -76.211788 -8.102799 -4.513246 3.391635 -0.124220 1.079460 -0.647810 0.449370 10.670907 3.406486 2.846273 26.055915 4.421881 -6.692630 -27.709817 85.828266 -24.438488 1.285544 -1.804432 -0.424840 0.224680 0.169320 0.081590 
-0.144620 17.604360 -1.408210 -1.903613 -24.662606 5.426216 -15.195863 13.383103 2.698777 7.142271 -1.712462 -13.532528 -8.144512 5.876640 11.151969 -0.455464 4.881078 3.425323 -0.065450 -0.444710 -0.196570 18.283495 -10.442277 2.705332 -5.898823 2.499412 -22.866491 6.240599 -4.087889 10.445781 0.336250 -3.263661 3.468614 -0.010840 1.326150 0.593900 -3.432324 -2.359062 -6.552531 6.888443 -2.623488 1.230168 -0.210721 -3.368353 10.871051 0.050874 -1.265268 -6.795589 -3.482668 6.754318 28.433030 -6.063540 8.409010 12.123310 -9.454960 -4.414538 1.762169 -17.417004 -14.631080 2.979731 1.981563 -75.267591 -1.051402 -4.528399 3.487710 -0.119670 1.072500 -0.640990 0.447350 9.786410 3.913646 3.244738 24.038443 4.913678 -4.899886 -9.561555 84.698338 -9.341205 1.434849 -2.190892 -0.417950 0.218920 0.169420 0.081870 
-0.143540 17.604520 -1.402520 -1.850609 -24.755081 5.733783 -15.198228 13.372817 2.711735 7.016803 -1.753567 -13.760201 -8.189165 5.837270 11.009208 -0.449103 4.840268 3.433428 -0.059460 -0.434870 -0.193290 18.283823 -10.413947 2.717285 -5.928225 2.536622 -23.116245 6.280454 -4.043257 10.241951 0.336002 -3.227334 3.476957 -0.011830 1.313020 0.589240 -3.434691 -2.390214 -6.563545 6.992739 -2.674013 1.021005 -0.132705 -3.394131 11.066243 -0.010533 -1.503684 -7.118787 -3.947612 6.852106 28.518850 -5.957940 8.268200 12.034650 -8.699059 -4.866385 1.891163 -16.572451 -14.960975 3.446664 -7.111738 -73.661902 5.468986 -4.528853 3.555882 -0.118640 1.058430 -0.632740 0.445850 9.114045 4.512221 3.598773 21.898296 5.272584 -3.394117 6.349691 83.186250 3.726164 1.545391 -2.369100 -0.408540 0.215530 0.164430 0.085400 
-0.143740 17.606840 -1.396320 -1.806622 -24.801193 6.048025 -15.199466 13.364949 2.727900 6.938388 -1.801638 -14.017549 -8.276834 5.816416 10.916839 -0.438293 4.806183 3.437434 -0.051710 -0.428970 -0.191710 18.284563 -10.386873 2.727432 -5.906693 2.571964 -23.317834 6.227455 -3.981082 10.019486 0.334018 -3.182774 3.491977 -0.018480 1.296540 0.587570 -3.438221 -2.426701 -6.579375 7.143336 -2.712462 0.853504 -0.086281 -3.398362 11.166292 -0.067745 -1.801090 -7.455738 -4.540993 6.926147 28.675919 -5.760760 8.012220 11.995450 -8.064105 -5.430667 2.005754 -15.835618 -15.364941 3.829878 -15.011321 -71.528498 10.803644 -4.515438 3.603576 -0.110720 1.039200 -0.621380 0.447070 8.551731 5.259971 4.010959 19.881743 5.399021 -2.226382 18.998316 81.264151 13.556823 1.631748 -2.433270 -0.396030 0.207860 0.158760 0.088900 
-0.144930 17.612700 -1.389820 -1.779924 -24.818034 6.346837 -15.198459 13.358041 2.746242 6.899782 -1.842753 -14.254677 -8.385659 5.801321 10.809087 -0.422558 4.771769 3.440783 -0.049500 -0.430600 -0.192900 18.286417 -10.364897 2.737483 -5.818836 2.604310 -23.463510 6.082861 -3.904295 9.765508 0.330893 -3.127860 3.515317 -0.034760 1.277450 0.585800 -3.445031 -2.457196 -6.602443 7.343282 -2.726762 0.753841 -0.074601 -3.372322 11.158279 -0.092042 -2.094575 -7.796284 -5.157735 6.914767 28.968368 -5.622820 7.737650 11.987490 -7.542215 -6.095640 2.107259 -15.294899 -15.861120 4.134478 -21.366135 -68.906566 14.688606 -4.492368 3.627632 -0.096720 1.016310 -0.606060 0.446890 8.039176 6.105580 4.455390 18.272773 5.412790 -1.408429 27.947436 78.811751 19.784679 1.701254 -2.426439 -0.381990 0.199650 0.155470 0.092190 
-0.147400 17.618550 -1.383280 -1.769701 -24.798173 6.668464 -15.196852 13.348250 2.766428 6.901114 -1.886280 -14.506943 -8.514486 5.785825 10.663142 -0.398855 4.734813 3.444488 -0.054180 -0.439080 -0.196150 18.288704 -10.344983 2.748254 -5.677578 2.642537 -23.611656 5.873331 -3.815632 9.506987 0.327359 -3.064931 3.539446 -0.059200 1.257790 0.586150 -3.452489 -2.479491 -6.629594 7.532751 -2.707731 0.673519 -0.074756 -3.317634 11.064126 -0.087856 -2.320312 -8.133520 -5.662042 6.848921 29.288365 -5.491680 7.500700 12.040640 -6.982388 -6.797850 2.192869 -15.114424 -16.561281 4.406870 -25.943208 -65.917358 17.034900 -4.464061 3.638061 -0.083920 0.992060 -0.588150 0.443650 7.440842 6.943753 4.906761 17.360455 5.373307 -0.911410 33.669673 75.964705 22.981584 1.757138 -2.392343 -0.364560 0.188530 0.154910 0.097470 
-0.149120 17.624580 -1.376900 -1.755521 -24.748117 6.994676 -15.193979 13.340715 2.786250 6.852110 -1.928436 -14.752363 -8.571590 5.743227 10.481425 -0.379543 4.686445 3.450926 -0.066350 -0.455390 -0.203500 18.291697 -10.327545 2.760121 -5.541124 2.678867 -23.776292 5.645356 -3.730561 9.260249 0.325541 -2.999314 3.563312 -0.088160 1.238160 0.584250 -3.462200 -2.500652 -6.658540 7.741528 -2.705561 0.620307 -0.151734 -3.270922 10.900649 -0.055378 -2.529246 -8.473256 -6.143869 6.803942 29.647252 -5.350860 7.298090 12.106330 -6.323652 -7.502684 2.298254 -15.424515 -17.379833 4.665576 -28.863656 -62.593731 17.997131 -4.432277 3.631425 -0.068060 0.966670 -0.571090 0.435520 6.692196 7.778190 5.328529 17.124045 5.469683 -0.630151 37.156626 72.656586 24.121410 1.796820 -2.347230 -0.350130 0.178490 0.160570 0.101010 
-0.152140 17.631020 -1.371630 -1.705000 -24.690400 7.296773 -15.192742 13.336373 2.806427 6.786280 -1.975141 -15.042665 -8.634158 5.716789 10.381294 -0.366255 4.646529 3.453697 -0.085720 -0.476060 -0.219400 18.292969 -10.307729 2.770525 -5.455240 2.704747 -23.929417 5.445094 -3.654650 8.995867 0.327866 -2.939060 3.588626 -0.115800 1.224610 0.578520 -3.466951 -2.532864 -6.686110 7.896677 -2.725058 0.592532 -0.255575 -3.238102 10.675363 -0.025271 -2.756809 -8.769546 -6.663032 6.809325 29.987314 -5.201220 7.101050 12.162680 -5.700008 -8.175581 2.393743 -16.124172 -18.319238 4.958514 -30.387408 -58.990603 17.868110 -4.405875 3.604424 -0.052860 0.945600 -0.558600 0.426130 5.989647 8.606183 5.680806 17.303533 5.748847 -0.470617 39.001729 69.045073 23.890320 1.821162 -2.295203 -0.341960 0.175050 0.172630 0.104470 
-0.155790 17.638980 -1.367870 -1.711266 -24.649016 7.583627 -15.188127 13.334426 2.825180 6.778214 -2.025957 -15.338133 -8.675774 5.695727 10.346918 -0.350216 4.610118 3.453396 -0.097110 -0.492500 -0.226070 18.296536 -10.290752 2.783729 -5.311553 2.740178 -24.063757 5.248848 -3.584373 8.764778 0.323701 -2.878215 3.609334 -0.143210 1.204700 0.579660 -3.479530 -2.562083 -6.716897 8.148556 -2.773607 0.633828 -0.442082 -3.222219 10.402938 0.027012 -3.003883 -9.055635 -7.237485 6.859022 30.414487 -5.066350 6.940790 12.175670 -5.162386 -8.863008 2.518327 -17.190395 -19.308453 5.263945 -30.607153 -55.168243 16.831109 -4.375899 3.568332 -0.033550 0.920540 -0.538690 0.418430 5.327831 9.463671 5.982726 17.877159 6.227944 -0.414812 39.389796 65.177240 22.604080 1.839760 -2.242684 -0.328630 0.165640 0.179240 0.106940 
